{"title":"Disney´s Planes - AVIONES TSHDRip.flv","uid":8847148,"size":467477566,"categoryP":"video","categoryS":"movies","magnet":"?xt=urn:btih:79e0571f2da23e541a28d47b40c6b9f293fc4186&amp;dn=Disney%26acute%3Bs+Planes+-+AVIONES+TSHDRip.flv&amp;tr=udp%3A%2F%2Ftracker.openbittorrent.com%3A80&amp;tr=udp%3A%2F%2Fopen.demonii.com%3A1337&amp;tr=udp%3A%2F%2Ftracker.coppersurfer.tk%3A6969&amp;tr=udp%3A%2F%2Fexodus.desync.com%3A6969","seeders":4,"leechers":0,"uploader":"globeplus","files":-1,"time":1377430722,"description":"DisneyÂ´s Planes - AVIONES TSHDRip.flv\n\nFormat                                   : Flash Video\nFile size                                : 446 MiB\nDuration                                 : 1h 22mn\nOverall bit rate                         : 752 Kbps\nTagged date                              : UTC 2013-08-24 18:55:47\nTagging application                      : flvtool++ (Facebook, Motion project, dweatherford)\n\nVideo\n\nFormat                                   : AVC\nFormat/Info                              : Advanced Video Codec\nFormat profile                           : &lt;a class=&quot;__cf_email__&quot; href=&quot;/cdn-cgi/l/email-protection&quot; data-cfemail=&quot;7439151d1a3438465a45&quot;&gt;[email&amp;#160;protected]&lt;/a&gt;&lt;script cf-hash='f9e31' type=&quot;text/javascript&quot;&gt;\n/* &lt;![CDATA[ */!function(){try{var t=&quot;currentScript&quot;in document?document.currentScript:function(){for(var t=document.getElementsByTagName(&quot;script&quot;),e=t.length;e--;)if(t[e].getAttribute(&quot;cf-hash&quot;))return t[e]}();if(t&amp;&amp;t.previousSibling){var e,r,n,i,c=t.previousSibling,a=c.getAttribute(&quot;data-cfemail&quot;);if(a){for(e=&quot;&quot;,r=parseInt(a.substr(0,2),16),n=2;a.length-n;n+=2)i=parseInt(a.substr(n,2),16)^r,e+=String.fromCharCode(i);e=document.createTextNode(e),c.parentNode.replaceChild(e,c)}}}catch(u){}}();/* ]]&gt; */&lt;/script&gt;\nFormat settings, CABAC                   : Yes\nFormat settings, ReFrames                : 4 frames\nCodec ID                                 : 7\nDuration                                 : 1h 22mn\nBit rate                                 : 512 Kbps\nWidth                                    : 640 pixels\nHeight                                   : 284 pixels\nDisplay aspect ratio                     : 2.25:1\nFrame rate mode                          : Constant\nFrame rate                               : 16.000 fps\nColor space                              : YUV\nChroma subsampling                       : 4:2:0\nBit depth                                : 8 bits\nScan type                                : Progressive\nBits/(Pixel*Frame)                       : 0.176\nStream size                              : 365 MiB (82%)\nWriting library                          : x264 core 107\n\n\nAudio\n\nFormat                                   : AAC\nFormat/Info                              : Advanced Audio Codec\nFormat profile                           : LC\nCodec ID                                 : 10\nDuration                                 : 1h 22mn\nBit rate                                 : 125 Kbps\nChannel(s)                               : 2 channels\nChannel positions                        : Front: L R\nSampling rate                            : 44.1 KHz\nCompression mode                         : Lossy\nDelay relative to video                  : 63ms\nStream size                              : 76.3 MiB (17%)\n\n\nPlot\n\nDusty Crophopper (Dane Cook) is a cropduster plane who works at a cornfield and practices aerobatic manuveurs in his spare time, dreaming of becoming a racer. His dreams are scorned by his boss, Leadbottom (Cedric the Entertainer) and his forklift/mechanic friend, Dottie (Teri Hatcher). However, he is supported by his fuel truck friend, Chug (Brad Garrett). Dusty and Chug train for qualifiers for the upcoming Wings Across the World race. On the night before the qualifiers, Dusty asks an elderly and reclusive navy war plane named Skipper Riley (Stacy Keach) to teach him how to fly well but Skipper refuses. Dusty enters the qualifiers, and although the audience mocks him for being a crop duster, he manages to wow them by his well-practiced flight maneuvers, but comes in 6th place and does not qualify. A few days later, a representative from the qualifier visits his town looking for Dusty and announces to him that he now placed 5th. This is due to the qualifier ahead of Dusty using an illegal fuel enhancement, getting him disqualified and Dusty replacing him. \n\n\n\n\n\n* enjoy ...\n","torrent":{"xt":"urn:btih:79e0571f2da23e541a28d47b40c6b9f293fc4186","amp;dn":"Disney%26acute%3Bs+Planes+-+AVIONES+TSHDRip.flv","amp;tr":["udp%3A%2F%2Ftracker.openbittorrent.com%3A80","udp%3A%2F%2Fopen.demonii.com%3A1337","udp%3A%2F%2Ftracker.coppersurfer.tk%3A6969","udp%3A%2F%2Fexodus.desync.com%3A6969"],"infoHash":"79e0571f2da23e541a28d47b40c6b9f293fc4186","infoHashBuffer":{"type":"Buffer","data":[121,224,87,31,45,162,62,84,26,40,212,123,64,198,185,242,147,252,65,134]},"announce":[],"urlList":[]}}